# xmcd
#
# Track frame offsets: 
#        150
#        11218
#        33785
#        44583
#        59163
#        74745
#        89933
#        103870
#        116300
#        129920
#        144678
#        158813
#        173015
#
# Disc length: 2495 seconds
#
# Revision: 2
# Processed by: cddbd v1.5.1PL0 Copyright (c) Steve Scherf et al.
# Submitted via: ExactAudioCopy v0.95a5
#
DISCID=c109bd0d
DTITLE=The Hollisters - Sweet Inspiration
DYEAR=2000
DGENRE=Country
TTITLE0=Fishin' Man
TTITLE1=Sweet Inspiration
TTITLE2=Love Rustler
TTITLE3=Tonkin'
TTITLE4=Thrill Of The Ride
TTITLE5=Sugarland
TTITLE6=Little Ole You
TTITLE7=Holes In The Road (Dumptruck)
TTITLE8=Two Trains
TTITLE9=Walk 'Em Off
TTITLE10=Little Everyday
TTITLE11=Drinking For Two
TTITLE12=The Last Picture Show
EXTD=
EXTT0=
EXTT1=
EXTT2=
EXTT3=
EXTT4=
EXTT5=
EXTT6=
EXTT7=
EXTT8=
EXTT9=
EXTT10=
EXTT11=
EXTT12=
PLAYORDER=
